# xmcd
#
# Track frame offsets:
#	150
#	15224
#	26729
#	39909
#	58641
#	72097
#	87681
#	105234
#	121780
#	140689
#	152364
#	163783
#	180360
#	198052
#	211813
#	227971
#	242148
#	258157
#	272070
#	279733
#	292190
#	299244
#	311795
# Disc length: 4331 seconds
# Revision: 1
# Processed by: cddbd v1.5PL3 Copyright (c) Steve Scherf et al.
#
# Submitted via: libkcddb 0.10
#
DISCID=4c10e917
DTITLE=Best Of - Neil Diamond
DYEAR=1900
DGENRE=
TTITLE0=A Woman Soon
TTITLE1=Away In A Manger
TTITLE2=Can You Feel The Love Tonight
TTITLE3=Candlelight Carol
TTITLE4=Crackle Rose
TTITLE5=Dancing To The Party Next Door
TTITLE6=Danny Boy
TTITLE7=Forever In Blue Jeans
TTITLE8=I Believe In Happy Endings
TTITLE9=I'm A Believer
TTITLE10=Jingle Bell Rock
TTITLE11=Love On The Rocks
TTITLE12=Manana De Septiembre
TTITLE13=Monday Monday
TTITLE14=My Special Someone
TTITLE15=Song Sung Blue
TTITLE16=Sweet Caroline
TTITLE17=Thank The Lord For The Night Time
TTITLE18=We Wish You A Merry Christmas
TTITLE19=When You Wish Upon A Star
TTITLE20=You Are My Sunshine
TTITLE21=You Don't Bring Me Flowers
TTITLE22=Hooked On The Memory Of You
EXTD=
EXTT0=
EXTT1=
EXTT2=
EXTT3=
EXTT4=
EXTT5=
EXTT6=
EXTT7=
EXTT8=
EXTT9=
EXTT10=
EXTT11=
EXTT12=
EXTT13=
EXTT14=
EXTT15=
EXTT16=
EXTT17=
EXTT18=
EXTT19=
EXTT20=
EXTT21=
EXTT22=
PLAYORDER=
